<svg width="1500" height="395" viewBox="0 0 1500 395" fill="none" xmlns="http://www.w3.org/2000/svg">
<path d="M240.275 6.86497C234.783 12.357 234.439 15.103 237.185 23.3409C238.902 28.4897 239.931 58.3524 239.588 89.2448L238.558 145.195L157.208 191.533L75.515 237.872V296.911C75.515 329.519 74.4852 363.158 73.4555 371.739C71.396 386.499 71.7392 387.872 79.2907 390.961C84.7827 393.021 89.5882 392.677 94.0504 389.931C100.572 385.812 100.915 381.693 99.8857 317.162L99.1992 248.856L179.176 203.89L259.153 158.924L260.183 94.0503C260.526 58.0092 262.586 27.8032 264.302 26.0869C269.451 20.9382 268.421 12.0137 261.556 5.83522C253.318 -1.71627 248.513 -1.37302 240.275 6.86497ZM257.437 12.357C261.213 16.476 260.87 18.5354 256.407 23.3409C250.915 28.4897 250.229 28.4897 244.737 23.3409C240.275 18.5354 239.931 16.476 243.707 12.357C246.11 9.26772 249.199 6.86497 250.572 6.86497C251.945 6.86497 255.034 9.26772 257.437 12.357ZM95.4234 378.947C94.7369 383.41 91.9909 386.156 87.5287 386.156C79.634 386.156 76.2015 374.485 82.7232 370.709C89.5882 366.247 96.4532 371.053 95.4234 378.947Z" fill="white"/>
<path d="M89.5882 59.3822L10.2976 104.348V143.135C10.2976 192.906 16.4761 194.966 17.8491 145.538L18.8788 108.81L93.7072 66.2472L168.879 23.6843L191.533 36.3845C204.234 43.5927 217.964 51.4875 222.426 54.2335C228.948 58.3525 229.977 58.3525 229.977 54.2335C229.977 51.8307 216.247 41.5332 199.428 31.9223L168.879 14.4165L89.5882 59.3822Z" fill="white"/>
<path d="M275.629 24.714C274.256 27.1167 273.57 59.3821 274.256 96.4531L275.286 163.73L223.455 193.593C194.966 209.725 169.565 223.112 166.819 223.112C160.298 223.112 144.165 230.32 144.165 233.066C144.165 237.529 168.192 247.826 173.684 245.767C176.773 244.737 205.263 228.947 237.185 210.755L295.195 177.803V113.272C295.195 73.7986 296.568 47.7117 298.627 46.3387C303.433 43.2494 303.089 29.8627 297.941 24.714C292.449 19.222 279.062 19.5652 275.629 24.714ZM293.478 36.0412C293.478 40.5034 290.732 43.2494 285.927 43.9359C280.092 44.9657 278.032 43.2494 278.032 38.4439C278.032 35.0114 279.062 30.8924 280.435 29.5195C284.897 25.0572 293.478 29.1762 293.478 36.0412Z" fill="white"/>
<path d="M310.298 45.3089C308.925 47.7116 308.238 79.9771 308.581 117.048L309.611 184.668L249.886 217.963C217.277 236.499 185.698 254.348 180.206 257.78C169.565 263.959 169.565 263.959 149.314 252.288C130.092 241.648 128.375 241.304 119.451 245.767C114.302 248.513 109.84 251.945 109.84 253.318C109.84 254.691 123.227 262.929 139.703 272.197L169.565 288.329L231.35 253.318C265.675 234.096 302.06 213.501 312.357 207.666L331.236 197.025L332.952 123.57C333.982 83.0663 334.325 47.7116 333.638 45.3089C331.922 40.1601 313.73 39.8169 310.298 45.3089ZM328.833 56.2928C327.46 64.8741 316.476 67.9633 313.73 60.4118C310.984 53.2036 318.192 44.6224 324.714 47.0251C327.46 48.0549 329.519 52.1739 328.833 56.2928Z" fill="white"/>
<path d="M86.8421 152.059L6.86503 197.368V261.899C6.86503 300 5.49204 329.176 3.43254 333.295C-2.05945 343.249 4.80554 353.547 17.1625 353.547C29.5195 353.547 36.3845 343.249 30.8925 333.295C28.833 329.519 27.46 301.716 27.46 268.421V210.069L98.1694 170.252L168.536 130.091L188.787 141.419C206.293 151.03 210.069 151.716 217.62 148.284C222.426 146.224 226.545 142.792 226.545 141.075C226.545 137.986 173.341 106.407 168.536 106.407C167.506 106.751 130.435 127.002 86.8421 152.059ZM21.968 331.579C28.833 334.325 28.833 341.19 21.968 346.682C17.849 350.458 15.7895 350.114 11.3273 345.652C6.86503 341.19 6.52178 339.13 10.2975 335.011C15.103 328.833 14.7598 328.833 21.968 331.579Z" fill="white"/>
<path d="M370.709 197.368V267.734H384.439H397.826L398.856 239.245L399.886 211.098L473.684 209.382C555.378 207.323 562.243 205.95 571.51 186.384C582.151 164.073 571.854 139.702 548.169 130.778C542.334 128.375 505.606 127.002 454.462 127.002H370.709V197.368ZM545.767 161.327C550.229 168.192 549.886 170.252 544.05 176.43C536.499 183.982 516.247 185.698 454.806 184.668L399.886 183.638L398.856 172.311C398.169 165.789 398.513 158.924 399.199 156.865C400.229 153.776 419.794 153.089 471.625 154.462C529.634 155.835 543.021 157.208 545.767 161.327Z" fill="white"/>
<path d="M607.552 197.368V267.734H621.281H635.011V197.368V127.002H621.281H607.552V197.368Z" fill="white"/>
<path d="M665.904 197.368V267.734H747.597C840.961 267.734 851.945 265.332 862.586 242.677C871.167 225.172 870.824 167.162 862.243 151.373C849.886 128.718 842.677 127.002 749.314 127.002H665.904V197.368ZM834.096 161.327C839.932 167.162 840.961 172.654 840.961 197.368C840.961 241.304 843.021 240.275 760.298 240.275H693.364V197.368V154.462H760.298C822.769 154.462 827.575 154.805 834.096 161.327Z" fill="white"/>
<path d="M899.313 197.368V267.734H913.043H926.773V197.368V127.002H913.043H899.313V197.368Z" fill="white"/>
<path d="M1029.75 148.284C1029.75 175.4 1039.36 196.339 1055.15 203.89C1064.42 208.352 1078.49 209.382 1122.08 209.382H1177.35V238.558V267.734H1191.08H1204.81V238.558V209.382H1218.54C1231.92 209.382 1232.27 209.039 1232.27 197.368C1232.27 185.698 1231.92 185.355 1218.54 185.355H1204.81V156.178V127.002H1191.08H1177.69L1176.66 155.149L1175.63 183.638L1132.72 184.668C1067.16 186.384 1057.21 180.892 1057.21 144.165V127.002H1043.48H1029.75V148.284Z" fill="white"/>
<path d="M1324.94 130.778C1301.95 140.046 1291.99 165.103 1294.74 208.009C1296.11 235.126 1301.95 248.513 1315.68 258.81C1324.6 265.332 1330.78 266.018 1391.88 267.048C1449.54 268.078 1460.18 267.391 1471.17 262.243C1492.11 252.288 1496.57 240.961 1496.57 197.368C1496.57 153.776 1491.42 140.389 1470.82 131.808C1456.75 125.973 1339.02 125.286 1324.94 130.778ZM1461.9 160.984C1475.29 174.371 1475.29 220.366 1461.9 233.753C1456.06 239.588 1449.89 240.275 1395.65 240.275H1335.58L1328.72 231.35C1322.88 224.142 1321.51 217.277 1321.51 197.368C1321.51 177.46 1322.88 170.595 1328.72 163.387L1335.58 154.462H1395.65C1449.54 154.462 1456.06 155.149 1461.9 160.984Z" fill="white"/>
<path d="M102.288 182.609L41.1899 217.62V280.092C41.1899 314.76 39.8169 346.682 37.7574 351.487C35.3546 358.009 36.0411 361.785 40.8466 367.62C52.8604 382.38 74.4851 367.277 65.5606 350.458C63.1579 346.339 61.7849 320.252 61.7849 287.3V230.664L113.616 201.144C142.448 185.011 167.849 171.625 170.595 171.625C173.341 171.625 180.206 169.222 186.041 166.133L196.339 160.641L185.698 154.119C179.863 150.686 172.311 147.597 168.879 147.597C165.789 147.941 135.583 163.73 102.288 182.609ZM60.0686 358.696C60.0686 366.59 48.3981 370.023 44.6224 363.501C40.1601 356.636 44.9656 349.771 52.8604 350.801C57.3226 351.487 60.0686 354.233 60.0686 358.696Z" fill="white"/>
<path d="M323.684 211.785C320.595 212.815 319.222 223.455 319.222 247.14C319.222 269.794 317.849 281.808 315.103 283.867C312.7 285.927 278.719 305.492 239.588 327.46L168.536 367.62L140.732 351.831C125.629 342.906 111.899 336.728 110.87 337.757C107.437 341.19 113.272 345.652 142.105 362.128L168.879 377.231L249.199 331.922L329.52 286.613V247.826C329.52 226.888 329.176 209.382 328.833 209.725C328.147 209.725 325.744 210.755 323.684 211.785Z" fill="white"/>
<path d="M1235.7 254.005V267.734H1249.43H1263.16V254.005V240.275H1249.43H1235.7V254.005Z" fill="white"/>
</svg>
